Coordinates
version=1
nRows=5
nColumns=40
inDegrees=yes

Units are S.I. units (second, meters, Newtons, ...)
Angles are in degrees.

endheader
time	pelvis_tilt	pelvis_list	pelvis_rotation	pelvis_tx	pelvis_ty	pelvis_tz	hip_flexion_r	hip_adduction_r	hip_rotation_r	knee_angle_r	knee_angle_r_beta	ankle_angle_r	subtalar_angle_r	mtp_angle_r	hip_flexion_l	hip_adduction_l	hip_rotation_l	knee_angle_l	knee_angle_l_beta	ankle_angle_l	subtalar_angle_l	mtp_angle_l	lumbar_extension	lumbar_bending	lumbar_rotation	arm_flex_r	arm_add_r	arm_rot_r	elbow_flex_r	pro_sup_r	wrist_flex_r	wrist_dev_r	arm_flex_l	arm_add_l	arm_rot_l	elbow_flex_l	pro_sup_l	wrist_flex_l	wrist_dev_l
     32.68250000	     -1.39116085	     -5.55720700	     -2.08996358	      1.06299220	      0.92699378	      0.46529512	     15.71077657	      2.83852938	     -9.17144938	     21.03956657	     21.03956657	      8.30046079	     -2.36194531	     -5.16410106	      9.19817516	    -13.03869218	     -7.24378826	     44.65732633	     44.65732633	     11.66785988	    -17.44109905	     -4.58777935	     -9.92011725	      7.61927514	      1.48556698	      7.28057078	    -15.11472767	     -9.44062008	     38.28539350	     40.24319889	      0.00000000	      0.00000000	     13.75342401	    -14.71381862	    -10.46324844	     54.84221490	     40.95197801	      0.00000000	      0.00000000
     32.69600000	     -1.13108555	     -5.57010960	     -1.59172595	      1.06337515	      0.92750180	      0.46777751	     15.00015650	      2.93751902	     -9.56061841	     21.04659672	     21.04659672	      8.70225224	     -2.38005276	     -5.23801427	     11.01148605	    -13.63775379	     -6.35934522	     48.41525259	     48.41525259	      9.55242177	    -17.86692869	     -4.68602459	    -10.09047230	      7.57607491	      1.49358742	      8.48889925	    -15.41180913	     -9.43370811	     39.23340351	     40.25013535	      0.00000000	      0.00000000	     13.06136041	    -14.33046291	    -10.27650776	     53.67828654	     40.96644891	      0.00000000	      0.00000000
     32.70950000	     -1.12482680	     -5.54372141	     -1.03018427	      1.06336060	      0.92755963	      0.47002800	     14.63560761	      2.97266755	    -10.03131943	     21.15175264	     21.15175264	      9.20642734	     -2.40380639	     -4.87385363	     13.27825039	    -14.07395056	     -5.24091987	     52.20847887	     52.20847887	      7.75158512	    -18.08843265	     -3.50455859	     -9.90025313	      7.56688886	      1.90084884	      8.06852968	    -16.26877670	     -8.21413780	     43.19077757	     40.44753470	      0.00000000	      0.00000000	     13.75482708	    -13.57610041	     -9.86678708	     48.86244423	     41.36736707	      0.00000000	      0.00000000
     32.72300000	     -1.00577594	     -5.65246793	     -0.43241789	      1.06311503	      0.92762516	      0.47225517	     14.11415895	      3.18322490	    -10.45863438	     21.14855157	     21.14855157	      9.54344847	     -2.59592332	     -4.90383027	     15.40692366	    -14.60582248	     -4.11134397	     55.69961696	     55.69961696	      5.69281438	    -18.32409185	     -2.99717340	     -9.96340145	      7.58748245	      1.78978421	      9.26909370	    -16.56320524	     -8.30113994	     44.19486838	     40.46583183	      0.00000000	      0.00000000	     12.83280368	    -13.23817030	     -9.63961704	     47.98626475	     41.38266457	      0.00000000	      0.00000000
     32.73650000	     -1.00149373	     -5.61864297	      0.17974099	      1.06252679	      0.92752173	      0.47414974	     13.80621605	      3.22903059	    -10.78517652	     21.27341039	     21.27341039	      9.98159716	     -2.90812198	     -4.59629005	     17.79795016	    -14.71399575	     -2.76202788	     59.19029750	     59.19029750	      5.22957968	    -18.16706212	      1.59323820	     -9.90560475	      7.53432361	      1.88579173	      9.37881914	    -17.26825877	     -7.55402157	     47.92228593	     40.66818749	      0.00000000	      0.00000000	     12.77190326	    -12.80644256	     -9.04550102	     44.90557922	     41.70975823	      0.00000000	      0.00000000
